<svg id="Layer_1" height="512" viewBox="0 0 64 64" width="512" xmlns="http://www.w3.org/2000/svg" data-name="Layer 1"><path d="m41.337 57h-18.674a4 4 0 0 1 -3.985-3.648l-2.678-30.352h32l-2.678 30.352a4 4 0 0 1 -3.985 3.648z" fill="#f8e8d0"/><path d="m41.337 58h-18.674a4.974 4.974 0 0 1 -4.981-4.561l-2.682-30.351a1 1 0 0 1 1-1.088h32a1 1 0 0 1 1 1.088l-2.682 30.351a4.974 4.974 0 0 1 -4.981 4.561zm-24.245-34 2.582 29.264a2.985 2.985 0 0 0 2.989 2.736h18.674a2.985 2.985 0 0 0 2.989-2.736l2.582-29.264z" fill="#231f20"/><path d="m42.67 8.47a2 2 0 0 1 1.119 2.6l-9.009 22.6c-.32-.08-.64-.16-.95-.26l-3.49-1.07q-.675-.21-1.35-.36l9.22-23.133a2 2 0 0 1 2.6-1.118z" fill="#cedc8b"/><path d="m34.78 34.67a1.017 1.017 0 0 1 -.243-.03c-.341-.085-.682-.171-1.013-.278l-3.477-1.062c-.427-.133-.851-.245-1.275-.34a1 1 0 0 1 -.711-1.346l9.22-23.133a3 3 0 0 1 3.9-1.677l1.863.741a3 3 0 0 1 1.678 3.9l-9.01 22.6a1 1 0 0 1 -.932.625zm-4.441-3.37c.1.029.2.059.3.09l3.487 1.069.058.018 8.676-21.777a1 1 0 0 0 -.56-1.3l-1.863-.741a1 1 0 0 0 -1.3.559z" fill="#231f20"/><rect fill="#ffea94" height="4" rx="2" width="38" x="13" y="19"/><path d="m49 24h-34a3 3 0 0 1 0-6h34a3 3 0 0 1 0 6zm-34-4a1 1 0 0 0 0 2h34a1 1 0 0 0 0-2z" fill="#231f20"/><path d="m47.15 32.61-1.83 20.74a3.994 3.994 0 0 1 -3.98 3.65h-18.68a3.994 3.994 0 0 1 -3.98-3.65l-1.81-20.54 4.68-.93a17.937 17.937 0 0 1 7.44.1q.675.15 1.35.36l3.49 1.07c.31.1.63.18.95.26a17.994 17.994 0 0 0 9.41-.19z" fill="#f9bea9"/><path d="m41.34 58h-18.68a4.967 4.967 0 0 1 -4.976-4.563l-1.81-20.537a1 1 0 0 1 .8-1.069l4.68-.93a19.075 19.075 0 0 1 7.855.099q.713.159 1.427.381l3.487 1.069c.3.1.6.171.9.246a17.034 17.034 0 0 0 8.887-.179l2.959-.871a1 1 0 0 1 1.277 1.054l-1.83 20.74a4.967 4.967 0 0 1 -4.976 4.56zm-23.4-24.384 1.731 19.646a2.98 2.98 0 0 0 2.989 2.738h18.68a2.98 2.98 0 0 0 2.984-2.737l1.7-19.28-1.553.456a19.013 19.013 0 0 1 -9.934.2c-.342-.086-.683-.172-1.014-.279l-3.476-1.06c-.427-.133-.851-.245-1.274-.34a17.076 17.076 0 0 0 -7.028-.1z" fill="#231f20"/><circle cx="24" cy="38" fill="#b1718e" r="2"/><path d="m24 41a3 3 0 1 1 3-3 3 3 0 0 1 -3 3zm0-4a1 1 0 1 0 1 1 1 1 0 0 0 -1-1z" fill="#231f20"/><circle cx="33" cy="42" fill="#b1718e" r="2"/><path d="m33 45a3 3 0 1 1 3-3 3 3 0 0 1 -3 3zm0-4a1 1 0 1 0 1 1 1 1 0 0 0 -1-1z" fill="#231f20"/><circle cx="25" cy="47" fill="#b1718e" r="2"/><path d="m25 50a3 3 0 1 1 3-3 3 3 0 0 1 -3 3zm0-4a1 1 0 1 0 1 1 1 1 0 0 0 -1-1z" fill="#231f20"/><circle cx="39" cy="48" fill="#b1718e" r="2"/><path d="m39 51a3 3 0 1 1 3-3 3 3 0 0 1 -3 3zm0-4a1 1 0 1 0 1 1 1 1 0 0 0 -1-1z" fill="#231f20"/><circle cx="32" cy="52" fill="#b1718e" r="2"/><path d="m32 55a3 3 0 1 1 3-3 3 3 0 0 1 -3 3zm0-4a1 1 0 1 0 1 1 1 1 0 0 0 -1-1z" fill="#231f20"/><circle cx="41" cy="39" fill="#b1718e" r="2"/><path d="m41 42a3 3 0 1 1 3-3 3 3 0 0 1 -3 3zm0-4a1 1 0 1 0 1 1 1 1 0 0 0 -1-1z" fill="#231f20"/></svg>