<svg id="ea661854-f42f-451e-97d4-ef50fa370d7c" height="512" viewBox="0 0 64 64" width="512" xmlns="http://www.w3.org/2000/svg" data-name="glyph"><path d="m54.081 11.205.965-1.763 1.764-.965-1.764-.965-.965-1.764-.964 1.764-1.764.965 1.764.965z"/><path d="m14.07 52.069-.656 1.199-1.199.656 1.199.655.656 1.199.655-1.199 1.199-.655-1.199-.656z"/><path d="m51.843 44.032-.656 1.199-1.199.656 1.199.655.656 1.199.655-1.199 1.199-.655-1.199-.656z"/><path d="m6.372 11.9.656-1.199 1.199-.656-1.199-.655-.656-1.199-.655 1.199-1.199.655 1.199.656z"/><path d="m11.99981 32.76116a1.04344 1.04344 0 0 0 1.28823-1.6415l-2.92976-2.296a1.051 1.051 0 0 0 -1.683.82077v5.58944a3.60384 3.60384 0 0 0 -1.29867-.23893 3.14412 3.14412 0 1 0 0 6.27506 3.2529 3.2529 0 0 0 3.37647-3.29341v-6.20243z"/><path d="m59.60383 19.2758-2.92983-2.29607a1.04564 1.04564 0 0 0 -1.68305.81044v5.59984c-2.07968-.871-4.73517.67357-4.67516 2.89866.13282 4.08745 6.492 4.16507 6.753.10374a.732.732 0 0 0 0-.25966v-6.20241l1.24673.9766a1.03942 1.03942 0 0 0 1.28831-1.63114z"/><path d="m40.27573 38.22775-4.41807 2.829-.93691-4.29867a1.13957 1.13957 0 0 1 -.02758-.24807l.046-9.79138a1.13417 1.13417 0 0 1 1.01034-1.1298l6.2551-.7624a3.1597 3.1597 0 0 0 2.56267-4.2252l-3.46279-9.27709a2.98916 2.98916 0 0 0 -5.61215 2.0576l2.0942 5.805-4.51909.65213a1.04093 1.04093 0 0 1 -.37666-.01839l-7.63292-1.74515a.90975.90975 0 0 1 -.4317-.21129c-.92772-.82663-3.13209-3.27914-3.54547-8.27591a3.38231 3.38231 0 0 0 -6.66851 1.12987c.56949 3.28827 2.17691 9.37812 6.595 13.31858a2.715 2.715 0 0 1 .91852 2.00241v9.05663c-.91847 3.92845-4.5346 12.95395 2.01162 22.01709a3.4477 3.4477 0 0 0 2.581 1.13886 3.603 3.603 0 0 0 3.09527-5.40097c-1.51543-2.48-3.79336-7.41245-2.11245-12.70313l.21123-.4501a.77579.77579 0 0 1 1.46048.20207l1.093 6.42964a3.97173 3.97173 0 0 0 .72562 1.66253 3.837 3.837 0 0 0 5.17127.90019l7.5962-4.98758a3.38389 3.38389 0 0 0 -3.68322-5.67647z"/><path d="m29.47389 17.86217a5.21719 5.21719 0 1 0 -5.2172-5.2171 5.22543 5.22543 0 0 0 5.2172 5.2171z"/></svg>