<svg id="f2a293f5-e1b2-4e30-a252-d6ebfe556c27" height="512" viewBox="0 0 64 64" width="512" xmlns="http://www.w3.org/2000/svg" data-name="line"><path d="m53.504 11.472.929-1.698 1.698-.928-1.698-.929-.929-1.697-.928 1.697-1.698.929 1.698.928z"/><path d="m14.992 50.805-.631 1.153-1.154.631 1.154.632.631 1.153.631-1.153 1.154-.632-1.154-.631z"/><path d="m51.35 43.069-.631 1.154-1.154.631 1.154.631.631 1.154.631-1.154 1.154-.631-1.154-.631z"/><path d="m7.583 12.14.631-1.153 1.154-.632-1.154-.631-.631-1.153-.631 1.153-1.154.631 1.154.632z"/><path d="m13.00391 32.2168a1.00025 1.00025 0 0 0 1.23627-1.5723l-2.81733-2.21286a1.007 1.007 0 0 0 -1.61814.78617v5.38955c-1.99952-.84718-4.56629.65128-4.50581 2.78625.09681 3.88038 6.17992 4.02476 6.49256.16623a.661.661 0 0 0 .01325-.21108v-6.07435zm-3.19922 5.19635c-.0514 1.32377-2.48291 1.30709-2.50586-.01965.02517-1.3455 2.50797-1.33695 2.50586.01965z"/><path d="m58.81934 19.23926-2.81641-2.21387a1.00708 1.00708 0 0 0 -1.61815.78617v5.38961c-1.99938-.84711-4.5672.65122-4.50678 2.78619.09626 3.87227 6.16407 4.02851 6.49121.17874a.67151.67151 0 0 0 .01557-.21462v-6.08234l1.19824.94238a1.00025 1.00025 0 0 0 1.23632-1.57226zm-4.43457 6.76374c-.04562 1.32743-2.48345 1.31246-2.50684-.01574.0253-1.34326 2.50407-1.33794 2.50684.01574z"/><path d="m43.49023 37.62012a3.661 3.661 0 0 0 -1.97949.58691l-4.80957 3.07715-1.01855-4.66113a1.60673 1.60673 0 0 1 -.03223-.29785l.04981-10.65528a1.25077 1.25077 0 0 1 1.09863-1.23633l6.8125-.82129a3.44684 3.44684 0 0 0 2.79486-4.60256l-3.78019-10.10349a3.25822 3.25822 0 0 0 -6.29588 1.14367c-.1701.63088 2.28114 6.70426 2.47257 7.4247-.15295-.00982-5.362.85071-5.331.6797l-8.30669-1.88577a1.15819 1.15819 0 0 1 -.48242-.24707c-1.00684-.89257-3.39746-3.55664-3.84571-8.99316-.886-4.70659-7.96053-3.545-7.26268 1.22176.61522 3.57219 2.3662 10.206 7.17577 14.50187 1.31208 1.02192.964 3.04622.99995 4.46781a1.00012 1.00012 0 0 0 2.00009-.00008v-2.29a4.96386 4.96386 0 0 0 -1.66406-3.666c-4.36035-3.89453-5.96973-10.03808-6.541-13.35449a1.68931 1.68931 0 0 1 3.30371-.65227c.52246 6.11516 3.32422 9.21184 4.50879 10.26164a3.16237 3.16237 0 0 0 1.35059.69727c.73019.09116 8.95328 2.23058 9.45309 1.94442l6.14066-.88a1.00709 1.00709 0 0 0 .79881-1.33008l-2.6992-7.47851a1.25288 1.25288 0 0 1 2.35255-.86127l3.77926 10.10055a1.43574 1.43574 0 0 1 -1.16213 1.916l-6.81443.8213a3.25359 3.25359 0 0 0 -2.85644 3.21676l-.04981 10.65527c-.11853.14723 1.34991 6.43748 1.40329 6.79294a1.00716 1.00716 0 0 0 1.51566.62989l6.02246-3.85251a1.678 1.678 0 0 1 1.828 2.8135l-2.06926 1.36032a1.00067 1.00067 0 0 0 1.09964 1.67184l2.0693-1.36129a3.693 3.693 0 0 0 -2.02925-6.75484z"/><path d="m39.001 46.26367-2.84571 1.86719a2.19834 2.19834 0 0 1 -3.3486-1.44926l-1.19144-7.00387a2.83021 2.83021 0 0 0 -2.45025-2.33984 3.03945 3.03945 0 0 0 -3.23725 2.28521c-2.09869 6.52241.65815 12.53413 2.48823 15.53706a1.80755 1.80755 0 0 1 -.57326 2.46483 1.84853 1.84853 0 0 1 -2.34667-.124c-6.05761-8.13379-3.10058-18.13965-2.04687-21.01856.50119-1.14586.24179-4.03411.30082-5.2627a1.00013 1.00013 0 0 0 -2 .00006c-.0608.81907.15929 3.86189-.17966 4.57609-1.14262 3.124-4.35062 14.0137 2.37008 22.96487a3.89248 3.89248 0 0 0 6.18261-4.6416c-1.6455-2.70117-4.1289-8.082-2.31055-13.82226l.23341-.49415a.8498.8498 0 0 1 1.59764.2149l1.1924 7.00874a4.16878 4.16878 0 0 0 4.11428 3.46383c1.65941.14482 3.81667-1.7751 5.14844-2.55465a1.00021 1.00021 0 0 0 -1.09765-1.67189z"/><path d="m29.74805 16.03613a5.68647 5.68647 0 0 0 5.68066-5.68066c-.26607-7.51854-11.09639-7.51661-11.36133.00009a5.68646 5.68646 0 0 0 5.68067 5.68057zm0-9.36133a3.68081 3.68081 0 0 1 -.00008 7.36133 3.68081 3.68081 0 0 1 .00008-7.36133z"/></svg>