<?xml version="1.0" encoding="UTF-8"?><svg id="Layer_2" xmlns="http://www.w3.org/2000/svg" viewBox="0 0 350.51 58.33"><defs><style>.cls-1{fill:#020202;}.cls-2{fill:#ffc524;}.cls-3{fill:#ff0061;}</style></defs><g id="Layer_1-2"><g><path class="cls-1" d="M125.75,13.76c2.69,1.42,4.77,3.42,6.24,6,1.47,2.57,2.21,5.54,2.21,8.91s-.74,6.3-2.21,8.88c-1.47,2.59-3.56,4.6-6.26,6.02-2.7,1.42-5.83,2.14-9.4,2.14h-12.77V11.62h12.77c3.59,0,6.73,.71,9.42,2.14Zm-2.62,22.19c1.75-1.72,2.62-4.14,2.62-7.28s-.87-5.58-2.62-7.33c-1.75-1.75-4.19-2.62-7.33-2.62h-3.93v19.81h3.93c3.14,0,5.58-.86,7.33-2.57Z"/><path class="cls-1" d="M142.63,44.4c-2.12-1.13-3.79-2.75-5-4.86s-1.82-4.56-1.82-7.38,.61-5.24,1.85-7.36c1.23-2.12,2.91-3.75,5.05-4.88,2.14-1.13,4.53-1.7,7.19-1.7s5.05,.57,7.19,1.7c2.14,1.13,3.82,2.76,5.05,4.88,1.23,2.12,1.84,4.57,1.84,7.36s-.62,5.24-1.87,7.36c-1.25,2.12-2.95,3.75-5.1,4.88-2.15,1.13-4.56,1.7-7.21,1.7s-5.04-.57-7.16-1.7Zm11.22-7.24c1.12-1.17,1.68-2.83,1.68-5s-.54-3.83-1.63-5c-1.08-1.17-2.42-1.75-4.01-1.75s-2.96,.57-4.03,1.72c-1.07,1.15-1.6,2.82-1.6,5.02s.53,3.84,1.58,5c1.05,1.17,2.37,1.75,3.96,1.75s2.94-.58,4.05-1.75Z"/><path class="cls-1" d="M178.92,19.61c1.46-.86,3.07-1.29,4.86-1.29v8.79h-2.28c-2.07,0-3.63,.45-4.66,1.33-1.04,.89-1.55,2.45-1.55,4.69v12.58h-8.3V18.62h8.3v4.52c.97-1.49,2.19-2.66,3.64-3.52Z"/><path class="cls-1" d="M228.95,21.38c1.99,2.04,2.99,4.87,2.99,8.5v15.83h-8.25v-14.71c0-1.75-.46-3.1-1.38-4.05s-2.19-1.43-3.81-1.43-2.89,.48-3.81,1.43-1.38,2.31-1.38,4.05v14.71h-8.25v-14.71c0-1.75-.46-3.1-1.38-4.05-.92-.96-2.19-1.43-3.81-1.43s-2.89,.48-3.81,1.43-1.38,2.31-1.38,4.05v14.71h-8.3V18.62h8.3v3.4c.84-1.13,1.94-2.03,3.3-2.69,1.36-.66,2.9-1,4.61-1,2.04,0,3.86,.44,5.46,1.31,1.6,.87,2.86,2.12,3.76,3.74,.94-1.49,2.22-2.7,3.84-3.64,1.62-.94,3.38-1.41,5.29-1.41,3.37,0,6.04,1.02,8.04,3.06Z"/><path class="cls-1" d="M241.82,44.86c-1.76-.79-3.15-1.89-4.15-3.3-1-1.41-1.52-3.03-1.55-4.88h4.71c.16,1.59,.82,2.92,1.97,4.01,1.15,1.08,2.82,1.63,5.02,1.63s3.76-.53,4.98-1.58,1.82-2.4,1.82-4.05c0-1.29-.36-2.35-1.07-3.16-.71-.81-1.6-1.42-2.67-1.85-1.07-.42-2.51-.87-4.32-1.36-2.23-.58-4.02-1.17-5.37-1.75-1.34-.58-2.49-1.5-3.45-2.74-.96-1.25-1.43-2.92-1.43-5.03,0-1.84,.47-3.48,1.41-4.9,.94-1.42,2.26-2.53,3.96-3.3,1.7-.78,3.65-1.17,5.85-1.17,3.17,0,5.77,.79,7.79,2.38,2.02,1.59,3.16,3.69,3.42,6.31h-4.86c-.16-1.29-.84-2.44-2.04-3.42-1.2-.99-2.78-1.48-4.76-1.48-1.85,0-3.35,.48-4.52,1.43-1.17,.96-1.75,2.29-1.75,4.01,0,1.23,.35,2.23,1.04,3.01,.7,.78,1.55,1.37,2.57,1.77,1.02,.41,2.45,.87,4.3,1.38,2.23,.62,4.03,1.22,5.39,1.82,1.36,.6,2.52,1.52,3.5,2.77s1.46,2.94,1.46,5.07c0,1.65-.44,3.21-1.31,4.66-.87,1.46-2.17,2.64-3.88,3.54-1.72,.91-3.74,1.36-6.07,1.36s-4.23-.4-6-1.19Z"/><path class="cls-1" d="M269.01,44.45c-2.02-1.13-3.61-2.74-4.76-4.83-1.15-2.09-1.72-4.51-1.72-7.26s.59-5.12,1.77-7.21c1.18-2.09,2.79-3.69,4.83-4.81,2.04-1.12,4.32-1.67,6.85-1.67s4.81,.56,6.85,1.67c2.04,1.12,3.65,2.71,4.83,4.78,1.18,2.07,1.77,4.48,1.77,7.23s-.61,5.17-1.82,7.26c-1.21,2.09-2.86,3.7-4.93,4.83-2.07,1.13-4.37,1.7-6.9,1.7s-4.75-.57-6.77-1.7Zm11.24-3.3c1.39-.74,2.52-1.86,3.37-3.35,.86-1.49,1.29-3.3,1.29-5.44s-.42-3.95-1.26-5.44c-.84-1.49-1.94-2.6-3.3-3.33-1.36-.73-2.83-1.09-4.42-1.09s-3.1,.36-4.44,1.09c-1.34,.73-2.42,1.84-3.23,3.33-.81,1.49-1.21,3.3-1.21,5.44s.4,4,1.19,5.49c.79,1.49,1.85,2.6,3.18,3.33,1.33,.73,2.78,1.09,4.37,1.09s3.08-.37,4.47-1.12Z"/><path class="cls-1" d="M317.44,19.1v26.61h-4.42v-3.93c-.84,1.36-2.02,2.42-3.52,3.18-1.5,.76-3.16,1.14-4.98,1.14-2.07,0-3.93-.43-5.58-1.29-1.65-.86-2.95-2.14-3.91-3.86-.96-1.72-1.43-3.8-1.43-6.26v-15.59h4.37v15c0,2.62,.66,4.64,1.99,6.04,1.33,1.41,3.14,2.11,5.44,2.11s4.22-.73,5.58-2.18c1.36-1.46,2.04-3.58,2.04-6.36v-14.61h4.42Z"/><path class="cls-1" d="M331.84,20.19c1.73-1.02,3.75-1.53,6.04-1.53s4.51,.57,6.43,1.7c1.93,1.13,3.44,2.73,4.54,4.78,1.1,2.06,1.65,4.44,1.65,7.16s-.55,5.08-1.65,7.19c-1.1,2.1-2.61,3.74-4.54,4.9-1.93,1.17-4.07,1.75-6.43,1.75s-4.27-.51-6-1.53c-1.73-1.02-3.05-2.29-3.96-3.81v17.53h-4.42V19.1h4.42v4.9c.87-1.52,2.18-2.79,3.91-3.81Zm12.94,6.87c-.81-1.49-1.9-2.62-3.28-3.4-1.38-.78-2.89-1.17-4.54-1.17s-3.12,.4-4.49,1.19c-1.38,.79-2.48,1.94-3.3,3.45-.83,1.5-1.24,3.25-1.24,5.22s.41,3.76,1.24,5.27c.83,1.5,1.93,2.65,3.3,3.45,1.38,.79,2.87,1.19,4.49,1.19s3.16-.4,4.54-1.19c1.38-.79,2.47-1.94,3.28-3.45s1.21-3.28,1.21-5.32-.4-3.75-1.21-5.24Z"/></g><g><path class="cls-2" d="M3.44,1.33L36.27,23.35,69.1,1.33c.6-.4,.31-1.33-.4-1.33H3.85c-.72,0-1,.93-.4,1.33Z"/><path class="cls-3" d="M71.81,9.05v-.17l-.14,.09c-.45-.21-.99-.21-1.46,.11L36.27,31.85,2.33,9.09c-.47-.32-1.02-.32-1.46-.11l-.14-.09v.17c-.42,.25-.73,.71-.73,1.28V30.99c0,8.11,5.89,14.83,13.62,16.16v5.27c0,1.56,1.26,2.82,2.82,2.82H56.11c1.56,0,2.82-1.26,2.82-2.82v-5.27c7.73-1.33,13.61-8.05,13.61-16.16V10.33c0-.57-.31-1.02-.73-1.28Z"/></g></g></svg>